# AST/ASF file generated using VICON BodyLanguage
# -----------------------------------------------
:version 1.10
:name VICON
:units
  mass 1.0
  length 0.45
  angle deg
:documentation
   .ast/.asf automatically generated from VICON data using
   VICON BodyBuilder and BodyLanguage model FoxedUp or BRILLIANT.MOD
:root
   order TX TY TZ RX RY RZ
   axis XYZ
   position 0 0 0  
   orientation 0 0 0 
:bonedata
  begin
     id 1 
     name lhipjoint
     direction 0.440178 -0.822639 0.359871 
     length 2.53113 
     axis 0 0 0  XYZ
  end
  begin
     id 2 
     name lfemur
     direction 0.34202 -0.939693 0  
     length 7.88132  
     axis 0 0 20  XYZ
    dof rx ry rz
    limits (-160.0 20.0)
           (-70.0 70.0)
           (-60.0 70.0)
  end
  begin
     id 3 
     name ltibia
     direction 0.34202 -0.939693 0   
     length 8.43783   
     axis 0 0 20   XYZ
    dof rx
    limits (-10.0 170.0)
  end
  begin
     id 4 
     name lfoot
     direction 0.0886351 -0.243523 0.965837   
     length 2.63414   
     axis -90 7.62852e-016 20   XYZ
    dof rx rz
    limits (-45.0 90.0)
           (-70.0 20.0)
  end
  begin
     id 5 
     name ltoes
     direction 1.53703e-011 -4.21717e-011 1   
     length 1.31427   
     axis -90 7.62852e-016 20   XYZ
    dof rx
    limits (-90.0 20.0)
  end
  begin
     id 6 
     name rhipjoint
     direction -0.399779 -0.839773 0.367367   
     length 2.47948  
     axis 0 0 0  XYZ 
  end
  begin
     id 7 
     name rfemur
     direction -0.34202 -0.939693 0   
     length 7.74806   
     axis 0 0 -20   XYZ
    dof rx ry rz
    limits (-160.0 20.0)
           (-70.0 70.0)
           (-70.0 60.0)
  end
  begin
     id 8 
     name rtibia
     direction -0.34202 -0.939693 0   
     length 8.74432   
     axis 0 0 -20   XYZ
    dof rx
    limits (-10.0 170.0)
 end
 begin
     id 9 
     name rfoot
     direction -0.108514 -0.298139 0.948334   
     length 2.66102  
     axis -90 -7.62852e-016 -20   XYZ
    dof rx rz
    limits (-45.0 90.0)
           (-20.0 70.0)
  end
  begin
     id 10 
     name rtoes
     direction -1.53392e-011 -4.22077e-011 1   
     length 1.31983   
     axis -90 -7.62852e-016 -20   XYZ
    dof rx
    limits (-90.0 20.0)
  end
  begin
     id 11 
     name lowerback
     direction 0.0113257 0.999866 0.0118602   
     length 2.58694   
     axis 0 0 0   XYZ
    dof rx ry rz
    limits (-20.0 45.0)
           (-30.0 30.0)
           (-30.0 30.0)
  end
  begin
     id 12 
     name upperback
     direction -0.0164747 0.995193 -0.0965375   
     length 2.52368   
     axis 0 0 0   XYZ
    dof rx ry rz
    limits (-20.0 45.0)
           (-30.0 30.0)
           (-30.0 30.0)
  end
  begin
     id 13 
     name thorax
     direction -0.0194301 0.99433 -0.104552   
     length 2.56099   
     axis 0 0 0   XYZ
    dof rx ry rz
    limits (-20.0 45.0)
           (-30.0 30.0)
           (-30.0 30.0)
  end
  begin
     id 14 
     name lowerneck
     direction 0.0148543 0.995587 -0.092657   
     length 1.71582   
     axis 0 0 0   XYZ
    dof rx ry rz
    limits (-20.0 45.0)
           (-30.0 30.0)
           (-30.0 30.0)
  end
  begin
     id 15 
     name upperneck
     direction -0.0135467 0.993656 -0.111639   
     length 1.68937   
     axis 0 0 0   XYZ
    dof rx ry rz
    limits (-20.0 45.0)
           (-30.0 30.0)
           (-30.0 30.0)
  end
  begin
     id 16
     name head
     direction -0.00615349 0.999547 -0.029448  
     length 1.7462  
     axis 0 0 0   XYZ
    dof rx ry rz
    limits (-20.0 45.0)
           (-30.0 30.0)
           (-30.0 30.0)
  end
  begin
     id 17 
     name lclavicle
     direction 0.988267 0.149885 0.0293713  
     length 4.47222  
     axis 0 0 0   XYZ
    dof ry rz
    limits (-20.0 10.0)
           (0.0 20.0)
  end
  begin
     id 18 
     name lhumerus
     direction 1 -4.48986e-011 -1.14833e-027   
     length 5.37148   
     axis 180 -30 -90   XYZ
    dof rx ry rz
    limits (-60.0 90.0)
           (-90.0 90.0)
           (-90.0 90.0)
  end
  begin
     id 19
     name lradius
     direction 0.999998 0.00170963 -0.000987055   
     length 3.94212   
     axis 180 -30 -90   XYZ
    dof rx
    limits (-10.0 170.0)
  end
  begin
     id 20
     name lwrist
     direction 0.999998 7.53149e-005 -0.00194706   
     length 1.97106   
     axis 4.65056e-015 90 90   XYZ
    dof ry
    limits (-180.0 0.0)
 end
  begin
     id 21 
     name lhand
     direction 1 -4.48973e-011 -1.31746e-026   
     length 1.17917   
     axis 8.4065e-015 90 90   XYZ
    dof rx rz
    limits (-90.0 90.0)
           (-45.0 45.0)
  end
  begin
     id 22 
     name lfingers
     direction 1 -4.49107e-011 -2.63492e-026   
     length 0.950679   
     axis 1.6813e-014 90 90   XYZ
    dof rx
    limits (0.0 90.0)
  end
  begin
     id 23
     name lthumb
     direction 0.707107 -6.35048e-011 0.707107   
     length 1.36499   
     axis -90 45 2.85299e-015   XYZ
    dof rx rz
    limits (-45.0 45.0)
           (-45.0 45.0)
  end
  begin
     id 24 
     name rclavicle
     direction -0.996699 0.0642895 -0.0495725   
     length 4.62611  
     axis 0 0 0   XYZ 
    dof ry rz
    limits (-10.0 20.0)
           (-20.0 0.0)
  end
  begin
     id 25 
     name rhumerus
     direction -1 -4.48919e-011 -2.41059e-027  
     length 5.4981   
     axis 180 30 90   XYZ
    dof rx ry rz
    limits (-90.0 60.0)
           (-90.0 90.0)
           (-90.0 90.0)
  end
  begin
     id 26 
     name rradius
     direction -0.999999 0.00118101 -0.000681858   
     length 3.48381   
     axis 180 30 90   XYZ
    dof rx
    limits (-10.0 170.0)
  end
  begin
     id 27 
     name rwrist
     direction -0.999999 0.000321823 -0.00132288   
     length 1.7419   
     axis 4.65056e-015 -90 -90   XYZ
    dof ry
    limits (-180.0 0.0)
  end
  begin
     id 28
     name rhand
     direction -1 -4.49022e-011 -1.31746e-026   
     length 1.34932   
     axis 8.4065e-015 -90 -90   XYZ
    dof rx rz
    limits (-90.0 90.0)
           (-45.0 45.0)
  end
  begin
     id 29
     name rfingers
     direction -1 -4.49178e-011 -2.63492e-026   
     length 1.08785   
     axis 1.6813e-014 -90 -90   XYZ
    dof rx
    limits (0.0 90.0)
  end
  begin
     id 30
     name rthumb
     direction -0.707107 -6.34713e-011 0.707107   
     length 1.56195   
     axis -90 -45 -2.85299e-015   XYZ
    dof rx rz
    limits (-45.0 45.0)
           (-45.0 45.0)
  end
:hierarchy
  begin
    root lhipjoint rhipjoint lowerback
    lhipjoint lfemur
    lfemur ltibia
    ltibia lfoot
    lfoot ltoes
    rhipjoint rfemur
    rfemur rtibia
    rtibia rfoot
    rfoot rtoes
    lowerback upperback
    upperback thorax
    thorax lowerneck lclavicle rclavicle
    lowerneck upperneck
    upperneck head
    lclavicle lhumerus
    lhumerus lradius
    lradius lwrist
    lwrist lhand lthumb
    lhand lfingers
    rclavicle rhumerus
    rhumerus rradius
    rradius rwrist
    rwrist rhand rthumb
    rhand rfingers
  end

#!OML:ASF X:\für Bonn\!DataBase\2005_08_10_Bjorn_Final\c3d\bjorn.ASF
:FULLY-SPECIFIED
:DEGREES
27
root -0.278137 19.1842 14.7941 -361.052 -175.548 1.60476
lowerback 16.9066 3.48212 -0.142135
upperback 18.0712 -0.149385 1.73569
thorax 10.4424 -2.08159 1.64909
lowerneck -4.6217 -2.91259 0.679361
upperneck 20.6948 -5.88245 2.04291
head 7.1317 -3.02488 0.0550197
rclavicle 1.06257e-014 -1.04704e-014
rhumerus -191.095 -155.006 96.3445
rradius 31.7586
rwrist 13.3329
rhand -16.1045 14.4494
rfingers 7.12502
rthumb 10.0994 -15.2883
lclavicle 1.06257e-014 -1.04704e-014
lhumerus -374.976 -2.40206 -285.198
lradius 34.2759
lwrist -1.49111
lhand -28.7232 -5.63183
lfingers 7.12502
lthumb -2.0844 24.3377
rfemur -12.9294 -13.0303 11.2046
rtibia 35.3978
rfoot -15.8161 16.96
rtoes -8.25505
lfemur -11.0227 7.03117 -13.2636
ltibia 28.9959
lfoot -11.5559 5.69108
ltoes -15.1035
28
root -0.32217 19.1739 14.8595 -361.166 -176.11 1.4119
lowerback 17.4734 3.53352 0.130489
upperback 18.3391 -0.275178 1.84189
thorax 10.4888 -2.20299 1.61214
lowerneck -4.71639 -3.0354 0.572302
upperneck 20.307 -5.9693 2.05342
head 7.02593 -3.06005 0.074786
rclavicle -1.18277e-014 1.08835e-014
rhumerus -190.587 -155.295 96.3985
rradius 31.7331
rwrist 13.2066
rhand -16.119 14.4347
rfingers 7.12502
rthumb 10.0854 -15.3036
lclavicle -1.18277e-014 1.08835e-014
lhumerus -374.515 -2.73031 -285.043
lradius 33.9533
lwrist -1.60095
lhand -28.4442 -5.56419
lfingers 7.12502
lthumb -1.81491 24.4078
rfemur -12.9417 -13.3696 11.0542
rtibia 35.4814
rfoot -15.8234 16.7756
rtoes -7.17339
lfemur -11.1304 7.413 -13.6009
ltibia 29.2799
lfoot -11.6264 5.80831
ltoes -15.5712
29
root -0.365415 19.1621 14.9262 -361.276 -176.664 1.2255
lowerback 18.0771 3.56903 0.438431
upperback 18.581 -0.409902 1.92253
thorax 10.4876 -2.32019 1.53155
lowerneck -4.7307 -3.15573 0.546981
upperneck 19.9283 -6.06002 2.01012
head 6.90559 -3.09907 0.0651987
rclavicle -5.1684e-015 4.96962e-016
rhumerus -190.165 -155.694 96.4614
rradius 31.7496
rwrist 13.0538
rhand -16.1884 14.389
rfingers 7.12502
rthumb 10.0184 -15.3525
lclavicle -5.1684e-015 4.96962e-016
lhumerus -374.134 -3.11051 -284.92
lradius 33.7184
lwrist -1.70275
lhand -28.1268 -5.45177
lfingers 7.12502
lthumb -1.50837 24.5226
rfemur -12.9754 -13.6607 10.9118
rtibia 35.5671
rfoot -15.8033 16.5713
rtoes -6.13933
lfemur -11.265 7.82434 -13.9249
ltibia 29.5881
lfoot -11.6975 5.87638
ltoes -15.6674
30
root -0.409061 19.1504 14.9942 -361.396 -177.256 1.03788
lowerback 18.7367 3.61507 0.749886
upperback 18.7995 -0.526552 2.00624
thorax 10.431 -2.42807 1.45455
lowerneck -4.57976 -3.27846 0.510046
upperneck 19.457 -6.15025 1.97864
head 6.72751 -3.14187 0.067059
rclavicle 2.88238e-015 -7.65321e-015
rhumerus -189.812 -156.127 96.5775
rradius 31.7914
rwrist 12.9077
rhand -16.215 14.285
rfingers 7.12502
rthumb 9.99271 -15.4578
lclavicle 2.88238e-015 -7.65321e-015
lhumerus -373.821 -3.55021 -284.79
lradius 33.5319
lwrist -1.82798
lhand -27.7677 -5.26142
lfingers 7.12502
lthumb -1.16154 24.7152
rfemur -13.0216 -13.8653 10.7641
rtibia 35.6571
rfoot -15.8907 16.321
rtoes -5.82969
lfemur -11.4032 8.24389 -14.2453
ltibia 29.9116
lfoot -11.7882 5.96847
ltoes -15.6316
31
root -0.452944 19.1373 15.0642 -361.502 -177.82 0.866441
lowerback 19.4155 3.63668 1.08233
upperback 19.0067 -0.672226 2.09358
thorax 10.3562 -2.54895 1.37536
lowerneck -4.25083 -3.38491 0.508052
upperneck 18.8014 -6.19616 1.92097
head 6.45797 -3.16533 0.0660077
rclavicle 3.77691e-015 -1.23246e-014
rhumerus -189.455 -156.547 96.6807
rradius 31.8176
rwrist 12.8262
rhand -16.2144 14.1733
rfingers 7.12502
rthumb 9.99331 -15.5695
lclavicle 3.77691e-015 -1.23246e-014
lhumerus -373.527 -3.97148 -284.668
lradius 33.3742
lwrist -1.9465
lhand -27.373 -4.94951
lfingers 7.12502
lthumb -0.78031 25.0288
rfemur -13.098 -14.0571 10.635
rtibia 35.7488
rfoot -16.1237 16.0224
rtoes -6.63146
lfemur -11.5828 8.65449 -14.554
ltibia 30.2516
lfoot -11.8749 6.04525
ltoes -15.5853
32
root -0.496081 19.1234 15.136 -361.603 -178.38 0.680556
lowerback 20.1212 3.65564 1.41718
upperback 19.2019 -0.816855 2.17115
thorax 10.2568 -2.66847 1.28748
lowerneck -3.77634 -3.48945 0.524658
upperneck 18.037 -6.24023 1.89626
head 6.1312 -3.18704 0.0782689
rclavicle -2.78299e-015 3.77691e-015
rhumerus -189.121 -156.91 96.7587
rradius 31.846
rwrist 12.7737
rhand -16.1262 14.0186
rfingers 7.12502
rthumb 10.0785 -15.7201
lclavicle -2.78299e-015 3.77691e-015
lhumerus -373.245 -4.47952 -284.565
lradius 33.2275
lwrist -2.09828
lhand -26.7616 -4.8733
lfingers 7.12502
lthumb -0.189855 25.1064
rfemur -13.2039 -14.2011 10.4949
rtibia 35.8399
rfoot -16.4077 15.6583
rtoes -8.02796
lfemur -11.7974 9.07397 -14.8771
ltibia 30.6132
lfoot -11.9743 6.11729
ltoes -15.6096
33
root -0.538833 19.1092 15.2092 -361.707 -178.908 0.492692
lowerback 20.8842 3.66206 1.76997
upperback 19.3763 -0.967756 2.24314
thorax 10.1069 -2.78812 1.18936
lowerneck -3.17639 -3.58776 0.620205
upperneck 17.2004 -6.27565 1.84269
head 5.75955 -3.20463 0.0739691
rclavicle 4.17448e-015 -1.27222e-014
rhumerus -188.833 -157.355 96.8499
rradius 31.8797
rwrist 12.6534
rhand -16.1771 13.8593
rfingers 7.12502
rthumb 10.0293 -15.8817
lclavicle 4.17448e-015 -1.27222e-014
lhumerus -372.981 -5.15021 -284.45
lradius 33.1317
lwrist -2.24828
lhand -26.133 -4.70753
lfingers 7.12502
lthumb 0.417301 25.2718
rfemur -13.319 -14.2808 10.3507
rtibia 35.9356
rfoot -16.6778 15.2628
rtoes -9.39738
lfemur -12.0275 9.47209 -15.1992
ltibia 30.9942
lfoot -12.0757 6.18979
ltoes -15.4583
